<mxfile host="app.diagrams.net" agent="Mozilla/5.0 (Macintosh; Intel Mac OS X 10_15_7) AppleWebKit/537.36 (KHTML, like Gecko) Chrome/127.0.0.0 Safari/537.36" version="24.7.12">
  <diagram name="componentes" id="jlDk5a-m_Qh-OBnrggl_">
    <mxGraphModel dx="1026" dy="651" grid="1" gridSize="10" guides="1" tooltips="1" connect="1" arrows="1" fold="1" page="1" pageScale="1" pageWidth="827" pageHeight="1169" math="0" shadow="0">
      <root>
        <mxCell id="0" />
        <mxCell id="1" parent="0" />
        <mxCell id="cAQEznNlKB9DRVIOS70c-1" style="edgeStyle=orthogonalEdgeStyle;rounded=1;orthogonalLoop=1;jettySize=auto;html=1;entryX=0.5;entryY=0;entryDx=0;entryDy=0;" edge="1" parent="1" source="cAQEznNlKB9DRVIOS70c-2" target="cAQEznNlKB9DRVIOS70c-5">
          <mxGeometry relative="1" as="geometry" />
        </mxCell>
        <mxCell id="cAQEznNlKB9DRVIOS70c-2" value="&lt;font style=&quot;font-size: 16px;&quot;&gt;Gestion de Usuario&lt;/font&gt;" style="shape=module;align=left;spacingLeft=20;align=center;verticalAlign=top;whiteSpace=wrap;html=1;rounded=1;" vertex="1" parent="1">
          <mxGeometry x="180" y="230" width="130" height="70" as="geometry" />
        </mxCell>
        <mxCell id="cAQEznNlKB9DRVIOS70c-3" style="edgeStyle=orthogonalEdgeStyle;rounded=1;orthogonalLoop=1;jettySize=auto;html=1;entryX=0;entryY=0.5;entryDx=0;entryDy=0;dashed=1;dashPattern=12 12;startArrow=classic;startFill=1;" edge="1" parent="1" source="cAQEznNlKB9DRVIOS70c-5" target="cAQEznNlKB9DRVIOS70c-9">
          <mxGeometry relative="1" as="geometry" />
        </mxCell>
        <mxCell id="cAQEznNlKB9DRVIOS70c-4" style="edgeStyle=orthogonalEdgeStyle;rounded=1;orthogonalLoop=1;jettySize=auto;html=1;entryX=0.5;entryY=0;entryDx=0;entryDy=0;" edge="1" parent="1" source="cAQEznNlKB9DRVIOS70c-5" target="cAQEznNlKB9DRVIOS70c-6">
          <mxGeometry relative="1" as="geometry" />
        </mxCell>
        <mxCell id="cAQEznNlKB9DRVIOS70c-5" value="&lt;div&gt;&lt;font style=&quot;font-size: 16px;&quot;&gt;Gestion de&amp;nbsp;&lt;br&gt;Solicitudes&lt;/font&gt;&lt;/div&gt;" style="shape=module;align=left;spacingLeft=20;align=center;verticalAlign=top;whiteSpace=wrap;html=1;rounded=1;" vertex="1" parent="1">
          <mxGeometry x="180" y="360" width="130" height="70" as="geometry" />
        </mxCell>
        <mxCell id="cAQEznNlKB9DRVIOS70c-6" value="«Annotation»&lt;br&gt;&lt;b&gt;Notificaciones&lt;/b&gt;" style="html=1;dropTarget=0;whiteSpace=wrap;rounded=1;" vertex="1" parent="1">
          <mxGeometry x="155" y="530" width="180" height="90" as="geometry" />
        </mxCell>
        <mxCell id="cAQEznNlKB9DRVIOS70c-7" value="" style="shape=module;jettyWidth=8;jettyHeight=4;rounded=1;" vertex="1" parent="cAQEznNlKB9DRVIOS70c-6">
          <mxGeometry x="1" width="20" height="20" relative="1" as="geometry">
            <mxPoint x="-27" y="7" as="offset" />
          </mxGeometry>
        </mxCell>
        <mxCell id="cAQEznNlKB9DRVIOS70c-8" style="edgeStyle=orthogonalEdgeStyle;rounded=1;orthogonalLoop=1;jettySize=auto;html=1;entryX=0.5;entryY=0;entryDx=0;entryDy=0;dashed=1;dashPattern=12 12;" edge="1" parent="1" source="cAQEznNlKB9DRVIOS70c-9" target="cAQEznNlKB9DRVIOS70c-11">
          <mxGeometry relative="1" as="geometry" />
        </mxCell>
        <mxCell id="cAQEznNlKB9DRVIOS70c-9" value="&lt;p style=&quot;margin:0px;margin-top:6px;text-align:center;&quot;&gt;&lt;b&gt;Libro&lt;/b&gt;&lt;/p&gt;&lt;hr size=&quot;1&quot; style=&quot;border-style:solid;&quot;&gt;&lt;p style=&quot;margin:0px;margin-left:8px;&quot;&gt;+ titulo: Type&lt;br&gt;+ autor: Type&lt;/p&gt;&lt;p style=&quot;margin:0px;margin-left:8px;&quot;&gt;+ Editorial&lt;/p&gt;" style="align=left;overflow=fill;html=1;dropTarget=0;whiteSpace=wrap;rounded=1;" vertex="1" parent="1">
          <mxGeometry x="410" y="350" width="180" height="90" as="geometry" />
        </mxCell>
        <mxCell id="cAQEznNlKB9DRVIOS70c-10" value="" style="shape=component;jettyWidth=8;jettyHeight=4;rounded=1;" vertex="1" parent="cAQEznNlKB9DRVIOS70c-9">
          <mxGeometry x="1" width="20" height="20" relative="1" as="geometry">
            <mxPoint x="-24" y="4" as="offset" />
          </mxGeometry>
        </mxCell>
        <mxCell id="cAQEznNlKB9DRVIOS70c-11" value="«Annotation»&lt;br&gt;&lt;b&gt;Base de datos&lt;/b&gt;" style="html=1;dropTarget=0;whiteSpace=wrap;rounded=1;" vertex="1" parent="1">
          <mxGeometry x="410" y="530" width="180" height="90" as="geometry" />
        </mxCell>
        <mxCell id="cAQEznNlKB9DRVIOS70c-12" value="" style="shape=module;jettyWidth=8;jettyHeight=4;rounded=1;" vertex="1" parent="cAQEznNlKB9DRVIOS70c-11">
          <mxGeometry x="1" width="20" height="20" relative="1" as="geometry">
            <mxPoint x="-27" y="7" as="offset" />
          </mxGeometry>
        </mxCell>
        <mxCell id="cAQEznNlKB9DRVIOS70c-13" value="Presentacion" style="shape=umlFrame;whiteSpace=wrap;html=1;pointerEvents=0;recursiveResize=0;container=1;collapsible=0;width=160;" vertex="1" parent="1">
          <mxGeometry x="140" y="660" width="510" height="180" as="geometry" />
        </mxCell>
        <mxCell id="cAQEznNlKB9DRVIOS70c-14" value="&lt;span style=&quot;font-size: 16px;&quot;&gt;Interfaz usuario&lt;/span&gt;" style="shape=module;align=left;spacingLeft=20;align=center;verticalAlign=top;whiteSpace=wrap;html=1;rounded=1;" vertex="1" parent="cAQEznNlKB9DRVIOS70c-13">
          <mxGeometry x="30" y="60" width="130" height="70" as="geometry" />
        </mxCell>
        <mxCell id="cAQEznNlKB9DRVIOS70c-15" value="&lt;span style=&quot;font-size: 16px;&quot;&gt;Interfaz Administrador&lt;/span&gt;" style="shape=module;align=left;spacingLeft=20;align=center;verticalAlign=top;whiteSpace=wrap;html=1;rounded=1;" vertex="1" parent="cAQEznNlKB9DRVIOS70c-13">
          <mxGeometry x="300" y="55" width="130" height="70" as="geometry" />
        </mxCell>
      </root>
    </mxGraphModel>
  </diagram>
</mxfile>
